# xmcd
#
# Track frame offsets:
#	150
#	29700
#	60532
#	89850
#	113152
#	159227
#	202662
#	232197
#	261425
#	286567
#
# Disc length: 4107 seconds
#
# Revision: 1
# Processed by: cddbd v1.5.2PL0 Copyright (c) Steve Scherf et al.
# Submitted via: audiograbber 1.83.01
#
DISCID=8910090a
DTITLE=Various Artist - Star Funk Vol. 39
DYEAR=1996
DGENRE=Disco
TTITLE0=Mona Rae - Do Me
TTITLE1=Gary Toms Empire - Sexy Lady
TTITLE2=Raww - Don't You Try It
TTITLE3=Robbie Ray - Finger On It
TTITLE4=Royalcash - Radio Activity
TTITLE5=Hydro - Stop Your Teasing
TTITLE6=Dino Terrel - You Can Do It
TTITLE7=Donald Dee - Don'tcha Go Nowhere
TTITLE8=Claudia Hart - I Need You
TTITLE9=Bill - As-Tu Du Feu
EXTD=
EXTT0=
EXTT1=
EXTT2=
EXTT3=
EXTT4=
EXTT5=
EXTT6=
EXTT7=
EXTT8=
EXTT9=
PLAYORDER=
